<svg xmlns="http://www.w3.org/2000/svg" xmlns:xlink="http://www.w3.org/1999/xlink" width="56" height="40" viewBox="0 0 56 40">
  <defs>
    <clipPath id="clip-path">
      <rect id="icon-sophist" width="56" height="40" fill="#1c4500"/>
    </clipPath>
  </defs>
  <g id="icon-sophist-2" data-name="icon-sophist" clip-path="url(#clip-path)">
    <g id="icon-sophisticated" transform="translate(7.997)">
      <g id="Group_19" data-name="Group 19" transform="translate(0 0)">
        <path id="Path_17" data-name="Path 17" d="M39.965,15.206a.655.655,0,0,0-.58-.442L25.7,13.852,20.6.441a.657.657,0,0,0-.622-.428h0a.657.657,0,0,0-.622.428L14.3,13.866.614,14.805a.649.649,0,0,0-.58.456.646.646,0,0,0,.193.7l10.594,9.213L7.451,39.2a.644.644,0,0,0,.262.691.636.636,0,0,0,.373.124A.773.773,0,0,0,8.46,39.9l11.575-7.721,11.588,7.68a.685.685,0,0,0,.359.11h0a.663.663,0,0,0,.663-.663.626.626,0,0,0-.041-.221l-3.412-13.95L39.758,15.9A.59.59,0,0,0,39.965,15.206ZM28.031,24.419a.678.678,0,0,0-.207.649L30.946,37.83l-10.552-7a.645.645,0,0,0-.732,0L9.123,37.858,12.2,25.1A.669.669,0,0,0,12,24.446L2.3,16.021l12.514-.87a.624.624,0,0,0,.566-.428L19.965,2.54l4.627,12.169a.679.679,0,0,0,.58.428l12.514.829Z" transform="translate(0 -0.013)" fill="#1c4500"/>
        <path id="Path_18" data-name="Path 18" d="M86.255,29.274a.343.343,0,0,0-.442.207l-3.135,8.287a.343.343,0,0,0,.207.442.4.4,0,0,0,.124.028.328.328,0,0,0,.318-.221l3.122-8.3A.331.331,0,0,0,86.255,29.274Z" transform="translate(-66.125 -23.404)" fill="#1c4500"/>
      </g>
    </g>
  </g>
</svg>
