<svg xmlns="http://www.w3.org/2000/svg" xmlns:xlink="http://www.w3.org/1999/xlink" width="47" height="35.685" viewBox="0 0 47 35.685">
  <defs>
    <clipPath id="clip-path">
      <rect id="icon-personal" width="47" height="35.685" fill="#1c4500"/>
    </clipPath>
  </defs>
  <g id="icon-personal-2" data-name="icon-personal" clip-path="url(#clip-path)">
    <g id="customize-c" transform="translate(6.798 0.083)">
      <g id="Group_24" data-name="Group 24" transform="translate(0 27.438)">
        <g id="Group_23" data-name="Group 23">
          <path id="Path_30" data-name="Path 30" d="M2.13,154.138,0,162.3l7.682-2.264Z" transform="translate(0 -154.138)" fill="#1c4500"/>
        </g>
      </g>
      <g id="Group_26" data-name="Group 26" transform="translate(26.099 0)">
        <g id="Group_25" data-name="Group 25">
          <path id="Path_31" data-name="Path 31" d="M162.352,2.388,160.964.913a2.831,2.831,0,0,0-4.164,0l-.991,1.053,5.552,5.9.991-1.053A3.28,3.28,0,0,0,162.352,2.388Z" transform="translate(-155.809 0)" fill="#1c4500"/>
        </g>
      </g>
      <g id="Group_28" data-name="Group 28" transform="translate(23.106 3.441)">
        <g id="Group_27" data-name="Group 27" transform="translate(0 0)">
          <path id="Path_32" data-name="Path 32" d="M.246.062,2.271,0,2.024,8.1,0,8.159Z" transform="translate(0 1.606) rotate(-45)" fill="#1c4500"/>
        </g>
      </g>
      <g id="Group_30" data-name="Group 30" transform="translate(6.345 10.079)">
        <g id="Group_29" data-name="Group 29" transform="translate(0 0)">
          <path id="Path_33" data-name="Path 33" d="M.092.816,26.954,0l-.092,3.037L0,3.853Z" transform="translate(0 19.059) rotate(-45)" fill="#1c4500"/>
        </g>
      </g>
      <g id="Group_32" data-name="Group 32" transform="translate(2.876 6.391)">
        <g id="Group_31" data-name="Group 31" transform="translate(0 0)">
          <path id="Path_34" data-name="Path 34" d="M.092.816,26.954,0l-.092,3.037L0,3.853Z" transform="translate(0 19.059) rotate(-45)" fill="#1c4500"/>
        </g>
      </g>
      <g id="Group_34" data-name="Group 34" transform="translate(18.139 19.276)">
        <g id="Group_33" data-name="Group 33">
          <path id="Path_35" data-name="Path 35" d="M121.78,113.04a6.145,6.145,0,0,0-5.291-1.935l-2.652-2.818-5.552,5.9,2.652,2.818a7.1,7.1,0,0,0,1.18,4.828l5.846-6.212,4.987,5.3A7.1,7.1,0,0,0,121.78,113.04Z" transform="translate(-108.285 -108.287)" fill="#1c4500"/>
        </g>
      </g>
      <g id="Group_36" data-name="Group 36" transform="translate(23.359 31.035)">
        <g id="Group_35" data-name="Group 35">
          <path id="Path_36" data-name="Path 36" d="M142.518,174.348l-3.069,3.262a6.074,6.074,0,0,0,6.668.563Z" transform="translate(-139.449 -174.348)" fill="#1c4500"/>
        </g>
      </g>
      <g id="Group_38" data-name="Group 38" transform="translate(3.474 0)">
        <g id="Group_37" data-name="Group 37">
          <path id="Path_37" data-name="Path 37" d="M20.741.742l3.6,3.825L27.409,1.3A6.074,6.074,0,0,0,20.741.742Z" transform="translate(-20.741 0)" fill="#1c4500"/>
        </g>
      </g>
      <g id="Group_40" data-name="Group 40" transform="translate(0 2.779)">
        <g id="Group_39" data-name="Group 39">
          <path id="Path_38" data-name="Path 38" d="M12.711,20.442a7.1,7.1,0,0,0-1.18-4.828L5.685,21.826.7,16.526a7.1,7.1,0,0,0,1.17,7.881,6.145,6.145,0,0,0,5.291,1.935L9.811,29.16l5.552-5.9Z" transform="translate(0 -15.613)" fill="#1c4500"/>
        </g>
      </g>
    </g>
  </g>
</svg>
