<svg xmlns="http://www.w3.org/2000/svg" xmlns:xlink="http://www.w3.org/1999/xlink" width="80" height="75" viewBox="0 0 80 75">
  <defs>
    <clipPath id="clip-path">
      <rect id="sports-icon" width="80" height="48" transform="translate(595 1107)" fill="#417f1c"/>
    </clipPath>
  </defs>
  <g id="icon-ride" transform="translate(-372 -643)">
    <g id="Mask_Group_8" data-name="Mask Group 8" transform="translate(-223 -450)" clip-path="url(#clip-path)">
      <g id="ride-icon" transform="translate(594.183 1090.183)">
        <g id="Group_21" data-name="Group 21" transform="translate(0 41.715)">
          <path id="Path_24" data-name="Path 24" d="M46.773-24.4a1.59,1.59,0,0,0-.867,1.513,1.35,1.35,0,0,0,.457,1.151c.457.457.473.457,2.413.457a5.925,5.925,0,0,1,2.239.2,7.375,7.375,0,0,1,.789,2.554c.3,1.309.615,2.649.709,3a5.471,5.471,0,0,1,.173.82c0,.158-1.971.2-9.3.2h-9.3v-1.687l2.018-.836c4.021-1.687,4.526-1.955,4.809-2.57a2.263,2.263,0,0,0-.047-2.207c-.647-.82-2.838-1.34-8.594-2.018-5.456-.647-7.9-.473-9.287.662-1.325,1.1-.883,3,1.041,4.526a19.435,19.435,0,0,0,5.03,2.412l1.561.5v2.3l-3.17,4L24.271-5.412l-1.687-.836a12,12,0,0,0-6.4-1.53,12.444,12.444,0,0,0-5.645,1.025A16.026,16.026,0,0,0,1.345,3.435a16.425,16.425,0,0,0-.3,6.843A15.268,15.268,0,0,0,5.1,17.926a14.826,14.826,0,0,0,17.991,3.091,17.308,17.308,0,0,0,4.557-3.532,20.721,20.721,0,0,0,2.412-3.658c.158-.378.315-.52.5-.473.158.032,1.7.268,3.422.536,3.5.552,4.037.52,5.487-.268a7.667,7.667,0,0,0,2.744-2.933,5.237,5.237,0,0,0,.315-3.5c-.22-.709-.22-.8.032-1.072C42.941,5.675,55.7-6.372,55.824-6.4c.047-.032.237.3.425.709l.315.741-1.309,1.23a14.652,14.652,0,0,0-3.532,4.762,14.576,14.576,0,0,0,1.7,15.658,14.974,14.974,0,0,0,18.307,4.683A15.829,15.829,0,0,0,80.39,11.068a16.476,16.476,0,0,0,.158-6.67A16.085,16.085,0,0,0,71.685-6.467,14.545,14.545,0,0,0,60.6-7a9.047,9.047,0,0,1-1.072.347c-.142-.173-.978-1.987-1.687-3.658a44.8,44.8,0,0,1-2.634-8.436c-.789-3.516-.851-3.69-1.624-4.526-.962-1.041-1.877-1.309-4.415-1.309A9.142,9.142,0,0,0,46.773-24.4ZM31.7-20.469c1.513.174,2.791.331,2.823.362a8.265,8.265,0,0,1-2.1.962,2.281,2.281,0,0,1-1.593,0,16.82,16.82,0,0,1-3.863-1.561c-.362-.268-.347-.268.8-.174C28.418-20.816,30.184-20.643,31.7-20.469Zm22.438,10,.268.709L47.529-3.251c-3.785,3.563-7.017,6.591-7.206,6.7-.284.189-.442.158-1.2-.189l-.867-.394-1.8-6.828c-.993-3.753-1.829-6.923-1.877-7.033-.047-.142,1.94-.189,9.619-.189h9.682ZM33.212-3.092c.836,3.2,1.5,5.85,1.451,5.9a34.816,34.816,0,0,1-3.548.362.411.411,0,0,1-.457-.331,24.446,24.446,0,0,0-1.8-3.579c-.284-.41-.851-1.136-1.261-1.625l-.772-.9L29.16-6.183A24.034,24.034,0,0,1,31.572-8.99C31.636-8.943,32.376-6.278,33.212-3.092ZM19.273-4.07c1.466.41,2.854,1.088,2.759,1.34-.047.11-1.325,1.766-2.854,3.674-2.507,3.138-2.823,3.485-3.248,3.485a3.933,3.933,0,0,0-3,2.491,2.777,2.777,0,0,0,.473,2.429c.836,1.324,1.167,1.435,7.27,2.412,3,.473,5.6.9,5.8.946l.362.095-.41.757a10.856,10.856,0,0,1-5.046,4.667A11.54,11.54,0,0,1,16.1,19.409a11.473,11.473,0,0,1-8.83-3.753,12.518,12.518,0,0,1-2.791-5.078A16.984,16.984,0,0,1,4.5,4.271,11.675,11.675,0,0,1,16.687-4.465,14.921,14.921,0,0,1,19.273-4.07ZM67.161-4.4A11.607,11.607,0,0,1,77.205,4.807a15.216,15.216,0,0,1-.237,6.323A11.492,11.492,0,0,1,70.9,18.242a10.344,10.344,0,0,1-5.44,1.088,9.562,9.562,0,0,1-3.469-.362,11.641,11.641,0,0,1-8.057-8.326,14.6,14.6,0,0,1,0-6.292A11.44,11.44,0,0,1,56.737-.775c.662-.694,1.246-1.214,1.324-1.151.063.063.8,1.4,1.64,2.964,2.523,4.652,4.179,7.458,4.6,7.805a1.659,1.659,0,0,0,2.176-.158c.8-.836.678-1.277-1.119-4.415-1.687-2.9-4.321-7.758-4.321-7.932a7.985,7.985,0,0,1,2.712-.726A10.768,10.768,0,0,1,67.161-4.4ZM25.549.2a13.961,13.961,0,0,1,1.718,3.2c-.079.095-5.976.584-6.039.52a52.322,52.322,0,0,1,3.58-4.541A4.209,4.209,0,0,1,25.549.2ZM38.668,6.81a2.2,2.2,0,0,1,.647,1.214c.189,1.608-.536,2.7-1.892,2.838-.946.079-20.231-2.98-19.789-3.154.425-.173,16.888-1.5,18.8-1.53l1.64-.016Z" fill="#417f1c"/>
        </g>
      </g>
    </g>
    <rect id="Rectangle_23" data-name="Rectangle 23" width="80" height="75" transform="translate(372 643)" fill="none"/>
  </g>
</svg>
