<svg xmlns="http://www.w3.org/2000/svg" xmlns:xlink="http://www.w3.org/1999/xlink" width="80" height="75" viewBox="0 0 80 75">
  <defs>
    <clipPath id="clip-path">
      <rect id="retro-icon" width="80" height="48" stroke-width="1" fill="#417f1c" stroke="#707070" transform="translate(595 1569)"/>
    </clipPath>
  </defs>
  <g id="icon-vintage" transform="translate(-1119 -643)">
    <g id="Mask_Group_9" data-name="Mask Group 9" transform="translate(524 -912)" clip-path="url(#clip-path)">
      <g id="retro-icon-2" data-name="retro-icon" transform="translate(606.423 1564.423)">
        <g id="Group_22" data-name="Group 22" transform="translate(0 29.206)">
          <path id="Path_25" data-name="Path 25" d="M21.788-24.463a9.369,9.369,0,0,0-6.434,5.248c-.74,1.6-.775,1.984-.775,7.585V-6.6l-1.045.141A14.878,14.878,0,0,0,5.01-2.155,14.818,14.818,0,0,0,1.218,4.01,12.694,12.694,0,0,0,.572,8.471,14.649,14.649,0,0,0,5.679,19.578,14.911,14.911,0,0,0,18.4,23.089a15.411,15.411,0,0,0,11.882-12,16.548,16.548,0,0,0-.117-5.882A15.336,15.336,0,0,0,17.785-6.429L16.516-6.64l-.035-3.428a23.266,23.266,0,0,1,.082-3.393c.082.023,6.188,5.659,24.739,22.79l2.008,1.867-.493.752a8.152,8.152,0,0,0-1.186,3.546,7.684,7.684,0,0,0,5.777,7.655,7.579,7.579,0,0,0,9.146-6.692,7.705,7.705,0,0,0-4.227-7.232,6.374,6.374,0,0,0-3.217-.752,6.875,6.875,0,0,0-4.027,1.186l-.305.223L39.095,4.644c-3.111-2.889-5.683-5.26-5.706-5.272s1.527-2.525,3.452-5.565l3.487-5.53h3.688l1.221-1.139c1.339-1.244,1.585-1.608,1.385-2.1a.863.863,0,0,0-.892-.634c-.317,0-.587.176-1.5,1l-1.127,1H39.13c-3.957,0-3.969,0-4.2.258a1.953,1.953,0,0,0-.305.47,1.113,1.113,0,0,0,.388,1.033,6.546,6.546,0,0,0,1.573.117,7.6,7.6,0,0,1,1.362.059c0,.153-6.035,9.569-6.105,9.545-.047-.023-3.5-3.17-7.643-7.009-5.659-5.225-7.573-7.056-7.6-7.28a5.565,5.565,0,0,1,.646-2.478,6.939,6.939,0,0,1,5.613-3.757c1.468,0,2.125-.857,1.315-1.737-.2-.211-.352-.258-.951-.246A8.357,8.357,0,0,0,21.788-24.463ZM14.58-.041v4.52l-.669.341a4.557,4.557,0,0,0-1.984,2.008A3.649,3.649,0,0,0,11.89,9.88a4.192,4.192,0,0,0,1.89,2.008,2.668,2.668,0,0,0,1.737.4,2.671,2.671,0,0,0,1.737-.4,3.911,3.911,0,0,0,2.2-3.534,3.125,3.125,0,0,0-.258-1.432,5.055,5.055,0,0,0-2.055-2.1l-.681-.341v-4.5c0-2.478.023-4.532.059-4.567a9.373,9.373,0,0,1,2.677.434,12.383,12.383,0,0,1,5.413,3.111,13.213,13.213,0,0,1,3.558,6.07,9.741,9.741,0,0,1,.317,3.323,9.9,9.9,0,0,1-.305,3.3,13.106,13.106,0,0,1-3.381,5.988,12.679,12.679,0,0,1-9.276,3.745A12.834,12.834,0,0,1,2.486,8.342,12.886,12.886,0,0,1,11.269-3.975,12.277,12.277,0,0,1,14.5-4.6C14.544-4.573,14.58-2.518,14.58-.041ZM14.58,7v.411h1.878V7c0-.47.023-.481.4-.235a2,2,0,0,1,.634,1.82,1.757,1.757,0,0,1-1.972,1.8,1.761,1.761,0,0,1-1.972-1.726A1.8,1.8,0,0,1,14,7C14.462,6.487,14.58,6.487,14.58,7Zm36.468,3.687a5.6,5.6,0,0,1,2.923,7.89,5.257,5.257,0,0,1-4.861,2.806,5.1,5.1,0,0,1-3.851-1.444,5.739,5.739,0,0,1-1.021-6.8,2.579,2.579,0,0,1,.376-.61A21.423,21.423,0,0,1,46.8,14.413a19.633,19.633,0,0,0,2.4,2.008,1.02,1.02,0,0,0,1.127-1.186,14.694,14.694,0,0,0-2.125-2.2l-2.055-1.9.423-.223A6.438,6.438,0,0,1,51.047,10.691Z" fill="#417f1c"/>
        </g>
      </g>
    </g>
    <rect id="Rectangle_25" data-name="Rectangle 25" width="80" height="75" transform="translate(1119 643)" fill="none"/>
  </g>
</svg>
