<svg xmlns="http://www.w3.org/2000/svg" xmlns:xlink="http://www.w3.org/1999/xlink" width="40" height="40" viewBox="0 0 40 40">
  <defs>
    <clipPath id="clip-path">
      <rect id="button-twitter" width="40" height="40" transform="translate(1177 20)" fill="#fff"/>
    </clipPath>
  </defs>
  <g id="Mask_Group_5" data-name="Mask Group 5" transform="translate(-1177 -20)" clip-path="url(#clip-path)">
    <g id="Instagram_simple_icon" transform="translate(1177 20)">
      <path id="Path_20" data-name="Path 20" d="M20.4,4.008c5.34,0,5.973.02,8.082.117a11.067,11.067,0,0,1,3.714.689,6.2,6.2,0,0,1,2.3,1.5,6.2,6.2,0,0,1,1.5,2.3,11.065,11.065,0,0,1,.689,3.714c.1,2.109.117,2.741.117,8.082s-.02,5.973-.117,8.082A11.069,11.069,0,0,1,36,32.2,6.623,6.623,0,0,1,32.2,36a11.065,11.065,0,0,1-3.714.689c-2.109.1-2.741.117-8.082.117s-5.973-.02-8.082-.117A11.069,11.069,0,0,1,8.609,36a6.2,6.2,0,0,1-2.3-1.5,6.2,6.2,0,0,1-1.5-2.3,11.065,11.065,0,0,1-.689-3.714c-.1-2.109-.117-2.741-.117-8.082s.02-5.973.117-8.082a11.067,11.067,0,0,1,.689-3.714,6.2,6.2,0,0,1,1.5-2.3,6.2,6.2,0,0,1,2.3-1.5,11.065,11.065,0,0,1,3.714-.689c2.109-.1,2.741-.117,8.082-.117m0-3.6c-5.432,0-6.113.023-8.246.12a14.679,14.679,0,0,0-4.855.93A9.8,9.8,0,0,0,3.762,3.762,9.8,9.8,0,0,0,1.454,7.3a14.682,14.682,0,0,0-.929,4.855C.428,14.292.4,14.973.4,20.4s.023,6.113.121,8.246a14.679,14.679,0,0,0,.93,4.855,9.8,9.8,0,0,0,2.307,3.542A9.8,9.8,0,0,0,7.3,39.354a14.68,14.68,0,0,0,4.855.93c2.133.1,2.814.12,8.246.12s6.113-.023,8.246-.12a14.679,14.679,0,0,0,4.855-.93,10.227,10.227,0,0,0,5.849-5.849,14.68,14.68,0,0,0,.93-4.855c.1-2.133.12-2.814.12-8.246s-.023-6.113-.12-8.246a14.679,14.679,0,0,0-.93-4.855,9.8,9.8,0,0,0-2.307-3.542,9.8,9.8,0,0,0-3.543-2.307A14.682,14.682,0,0,0,28.651.526C26.518.428,25.836.4,20.4.4h0Z" transform="translate(-0.405 -0.405)" fill="#fff"/>
      <path id="Path_21" data-name="Path 21" d="M22.837,12.567a10.27,10.27,0,1,0,10.27,10.27,10.27,10.27,0,0,0-10.27-10.27Zm0,16.937A6.667,6.667,0,1,1,29.5,22.837,6.667,6.667,0,0,1,22.837,29.5Z" transform="translate(-2.837 -2.837)" fill="#fff"/>
      <circle id="Ellipse_1" data-name="Ellipse 1" cx="2.4" cy="2.4" r="2.4" transform="translate(28.276 6.924)" fill="#fff"/>
    </g>
  </g>
</svg>
