<svg xmlns="http://www.w3.org/2000/svg" xmlns:xlink="http://www.w3.org/1999/xlink" width="40" height="40" viewBox="0 0 40 40">
  <defs>
    <clipPath id="clip-path">
      <rect id="Rectangle_9" data-name="Rectangle 9" width="40" height="40" rx="11" transform="translate(1115 20)" fill="#fff"/>
    </clipPath>
  </defs>
  <g id="Mask_Group_6" data-name="Mask Group 6" transform="translate(-1115 -20)" clip-path="url(#clip-path)">
    <g id="twitter-logo-on-black-background" transform="translate(1115 20)">
      <g id="post-twitter">
        <path id="Path_22" data-name="Path 22" d="M36,0H4A4.012,4.012,0,0,0,0,4V36a4.012,4.012,0,0,0,4,4H36a4.012,4.012,0,0,0,4-4V4A4.012,4.012,0,0,0,36,0ZM31.4,14.6c-.2,9.2-6,15.6-14.8,16A14.558,14.558,0,0,1,8,28.2,10.617,10.617,0,0,0,15.8,26a5.4,5.4,0,0,1-5-3.8,8.067,8.067,0,0,0,2.2,0,5.448,5.448,0,0,1-4.2-5.4,4.032,4.032,0,0,0,2.2.6c-1.8-1-3-4.8-1.6-7.2a15.848,15.848,0,0,0,11,5.6C19,10.2,26.6,7.2,29.6,11A13.474,13.474,0,0,0,33,9.8a5.655,5.655,0,0,1-2.2,3,11.465,11.465,0,0,0,2.8-.8C33.4,13,32.4,13.8,31.4,14.6Z" fill="#fff"/>
      </g>
    </g>
  </g>
</svg>
